HIERARCHY
ROOT pelvis
{
  OFFSET 0.000000000 0.000000000 0.000000000
  CHANNELS 6 Xposition Yposition Zposition Zrotation Yrotation Xrotation
  JOINT Spine
  {
    OFFSET 0.000000000 7.098910000 -4.732610000
    CHANNELS 3 Zrotation Yrotation Xrotation
    JOINT Spine1
    {
      OFFSET 0.000000000 9.321421820 -1.643618918
      CHANNELS 3 Zrotation Yrotation Xrotation
      JOINT Spine2
      {
        OFFSET 0.000000000 9.429201273 -0.824953336
        CHANNELS 3 Zrotation Yrotation Xrotation
        JOINT Spine3
        {
          OFFSET 0.000000000 9.465219566 -0.000009457
          CHANNELS 3 Zrotation Yrotation Xrotation
          JOINT Neck
          {
            OFFSET 0.000000000 24.846202406 3.549435011
            CHANNELS 3 Zrotation Yrotation Xrotation
            JOINT Head
            {
              OFFSET 0.000000000 12.816978830 2.259967009
              CHANNELS 3 Zrotation Yrotation Xrotation
              End Site
              {
                OFFSET 0.0 5.0 0.0
              }
            }
          }
          JOINT RightShoulder
          {
            OFFSET -3.199490000 17.277204535 5.332462492
            CHANNELS 3 Zrotation Yrotation Xrotation
            JOINT RightArm
            {
              OFFSET -15.890800000 -0.000005505 0.000000000
              CHANNELS 3 Zrotation Yrotation Xrotation
              JOINT RightForeArm
              {
                OFFSET -29.543600000 -0.000010234 0.000000000
                CHANNELS 3 Zrotation Yrotation Xrotation
                JOINT RightHand
                {
                  OFFSET -23.265200000 -0.000008059 0.000000000
                  CHANNELS 3 Zrotation Yrotation Xrotation
                  JOINT RightHandEnd
                  {
                    OFFSET -6.961150000 -0.000002411 0.000000000
                    CHANNELS 3 Zrotation Yrotation Xrotation
                    End Site
                    {
                      OFFSET 0.0 5.0 0.0
                    }
                  }
                  JOINT RightHandThumb1
                  {
                    OFFSET -2.784459357 -1.856306242 4.640771642
                    CHANNELS 3 Zrotation Yrotation Xrotation
                    End Site
                    {
                      OFFSET 0.0 5.0 0.0
                    }
                  }
                }
              }
            }
          }
          JOINT LeftShoulder
          {
            OFFSET 3.199490000 17.277204535 5.332462492
            CHANNELS 3 Zrotation Yrotation Xrotation
            JOINT LeftArm
            {
              OFFSET 15.890800000 0.000000000 0.000000000
              CHANNELS 3 Zrotation Yrotation Xrotation
              JOINT LeftForeArm
              {
                OFFSET 29.543600000 0.000000000 0.000000000
                CHANNELS 3 Zrotation Yrotation Xrotation
                JOINT LeftHand
                {
                  OFFSET 23.265200000 0.000000000 0.000000000
                  CHANNELS 3 Zrotation Yrotation Xrotation
                  JOINT LeftHandEnd
                  {
                    OFFSET 6.961150000 0.000000000 0.000000000
                    CHANNELS 3 Zrotation Yrotation Xrotation
                    End Site
                    {
                      OFFSET 0.0 5.0 0.0
                    }
                  }
                  JOINT LeftHandThumb1
                  {
                    OFFSET 2.784460000 -1.856305278 4.640771642
                    CHANNELS 3 Zrotation Yrotation Xrotation
                    End Site
                    {
                      OFFSET 0.0 5.0 0.0
                    }
                  }
                }
              }
            }
          }
        }
      }
    }
  }
  JOINT RightUpLeg
  {
    OFFSET -9.491820000 -2.772890000 0.000000000
    CHANNELS 3 Zrotation Yrotation Xrotation
    JOINT RightLeg
    {
      OFFSET 0.000000000 -41.211800000 0.000000000
      CHANNELS 3 Zrotation Yrotation Xrotation
      JOINT RightFoot
      {
        OFFSET -0.000000000 -45.609100000 0.000000000
        CHANNELS 3 Zrotation Yrotation Xrotation
        JOINT RightToeBase
        {
          OFFSET -0.000000000 -5.847492523 16.065826618
          CHANNELS 3 Zrotation Yrotation Xrotation
          End Site
          {
            OFFSET 0.0 5.0 0.0
          }
        }
      }
    }
  }
  JOINT LeftUpLeg
  {
    OFFSET 9.491820000 -2.772890000 0.000000000
    CHANNELS 3 Zrotation Yrotation Xrotation
    JOINT LeftLeg
    {
      OFFSET 0.000000000 -41.211800000 0.000000000
      CHANNELS 3 Zrotation Yrotation Xrotation
      JOINT LeftFoot
      {
        OFFSET -0.000000000 -45.609100000 0.000000000
        CHANNELS 3 Zrotation Yrotation Xrotation
        JOINT LeftToeBase
        {
          OFFSET -0.000000000 -5.847492523 16.065826618
          CHANNELS 3 Zrotation Yrotation Xrotation
          End Site
          {
            OFFSET 0.0 5.0 0.0
          }
        }
      }
    }
  }
}
MOTION
Frames: 9
Frame Time: 0.050000000000
-15.546625853 91.005569696 35.222935677 2.427860846 -12.476420135 -0.628937339 1.228152132 0.375657682 1.618520050 0.697106620 0.029804354 0.199305211 -1.318958088 2.310595662 8.193610023 -0.919911212 0.126554570 1.526425171 -6.813525615 4.780636827 -1.824903588 -1.951609769 5.943918159 -13.272575881 0.609654131 3.762608685 9.071331368 75.438169821 15.928457860 33.608393916 -0.412870356 17.355618296 0.011245658 -2.771423869 4.403799866 -1.652987195 -0.015944739 0.014721159 -0.000613357 -5.068723629 0.870053825 19.345263976 -7.410787063 1.302185437 8.091936981 -69.413602000 -9.778725490 27.694930352 -0.193795978 -18.560790810 0.167329008 6.847895090 -2.788840373 -1.482140697 0.025491417 0.015773258 0.031980519 -5.111194721 -0.904650128 -19.231421522 -2.466237601 -3.325390921 22.802062281 0.082132930 0.020045607 8.614503771 -3.001082540 9.235455125 -18.786251868 0.001270077 0.173224429 -5.427854084 -4.492350625 2.445249538 -25.597818913 -0.028379137 0.004096889 11.565292970 -0.464614050 9.430319737 4.418896968 -0.074531159 -0.492298994 -4.939064754
-15.857034922 91.159772873 41.294187307 4.036776602 -12.935126464 -0.495779559 0.602300307 0.543717752 1.039113312 0.673633363 0.091715458 -0.148656912 -2.251238138 3.210721260 8.030888258 -1.107041593 0.245669643 1.490203159 -6.750517157 4.651811083 -1.887011853 -1.804093059 5.428483884 -12.669073764 0.661967248 3.908108469 9.223744304 76.170443167 14.313443885 33.561614724 -0.669302445 16.969166476 -0.093031832 -2.550797197 4.698086822 -1.657667852 -0.037996407 0.023948289 0.037359441 -5.238956069 0.874508647 19.376092117 -7.617208472 1.530269541 8.664854237 -69.479673098 -10.104886638 28.768908737 -0.183903282 -16.402522262 0.058489288 5.972167006 -1.408665262 -0.471964145 0.001333849 0.005634626 -0.024405781 -5.082241836 -0.881118244 -19.376233406 -5.049043530 -2.544591444 21.168016755 0.282527825 -0.413496445 16.209572284 -1.497319014 9.758064005 -12.482479377 -0.283356222 0.761986301 -15.530144123 -6.258926918 1.218000254 -26.575801734 -0.106377577 -0.111975977 19.136273473 3.030982172 10.046701123 6.108272954 0.010345152 -0.275679389 -3.861540105
-16.168391705 91.709977388 47.600400448 5.640327028 -12.612160855 -1.176136594 -0.008168055 0.628452570 1.052839431 0.541676879 0.099429805 -0.076804409 -3.149291222 3.760709001 7.810976862 -1.244669391 0.185778797 1.438885440 -6.779138656 4.438158813 -1.721161172 -1.661499755 4.806222153 -12.369181344 -0.201781587 3.963885198 9.454724563 77.774293419 13.441331195 33.803240723 -0.731453643 16.458621475 -0.280028205 -1.957272483 4.683269143 -1.470891580 -0.013159921 -0.055486983 0.005083842 -5.213319501 0.874848784 19.355713279 -6.724382594 1.550181794 9.126961984 -70.413801673 -10.595847503 29.221362824 0.041241997 -15.256133889 0.004845763 5.275620279 -0.455388417 0.152272393 -0.009836716 0.000127393 -0.032404236 -5.129733405 -0.966369855 -19.331325463 -7.967775070 -2.385324700 15.649009770 0.097647157 -0.504169628 30.753662884 4.026845206 11.361534012 -1.561619295 -0.676047776 0.754880485 -19.405234512 -8.211760481 -0.578341967 -24.630121568 0.015376829 -0.058443270 23.732491929 3.606438447 11.379378481 0.912309902 -0.010300404 -0.335981955 -1.998394795
-16.592523456 92.436832190 53.082567453 6.227411155 -11.659676772 -1.820004134 -0.006740685 0.261320928 1.544836992 0.373578038 0.125082023 0.198390551 -3.554227081 3.517758966 7.741168126 -1.277833370 0.133009337 1.386991487 -7.092838113 4.292314197 -1.657050877 -1.686917575 4.540568059 -12.356869184 -0.075025282 4.081859254 9.459918431 77.598558093 13.834939193 33.548140145 -0.562400300 16.615215603 -0.230640045 -1.050749189 4.447959748 -0.809919850 -0.018795812 0.016803320 -0.001678653 -5.143470040 0.898698506 19.280552099 -6.526727139 1.566969568 9.194446896 -70.397144733 -11.261228018 29.080315743 0.233926299 -16.003037203 0.026445661 5.054696316 -0.480689445 0.218720300 0.011017326 -0.062617720 -0.012946104 -5.195631593 -0.940668429 -19.203407559 -9.762534026 -3.152193178 5.968409030 -0.236653258 -0.028633684 48.982934618 7.379810967 11.493297065 12.120445958 0.806268515 -0.315872403 -8.119554467 -9.333216961 -2.170147158 -20.919500718 0.063913939 -0.044988638 24.838536378 3.712969192 12.270163131 -2.968498525 0.030526911 -0.383404746 -1.152407981
-17.395669222 93.307727575 58.295094967 6.619466206 -10.795209814 -2.890961474 -0.695724154 0.387812713 1.860876818 0.193803660 0.153404669 0.633472944 -2.887342907 2.713691653 7.774293829 -1.116330571 -0.003881882 1.549954249 -7.040301036 4.410145677 -0.664928458 -2.242800694 4.492378036 -11.887717706 0.638502532 3.552486824 9.591139365 76.131703773 15.168413641 32.528127945 0.175525332 16.934307683 -0.014848904 -1.857808164 5.686628302 -1.715532335 0.006925621 0.001625398 -0.004108411 -5.119281181 0.857010568 19.082632195 -6.505741796 1.645670531 9.605437144 -70.419790461 -12.567242992 30.066974592 0.757796074 -17.225444056 -0.165049693 6.121434893 -0.905456843 -0.096966797 -0.000154788 -0.026323859 0.001397894 -5.175200095 -0.881803743 -19.185226977 -10.750985967 -2.276769565 -3.323951070 -0.041407135 -0.240571787 62.493292193 6.274213050 7.476676425 8.354518710 0.300277832 -0.167855426 -4.434665564 -10.253310723 -2.662801895 -14.963962155 0.054647536 0.222636204 22.532548093 3.366067139 12.128036184 -5.655395082 0.013940151 -0.386359618 -0.416348032
-18.507145345 94.273585081 63.300848007 5.746469063 -9.610907873 -4.122471673 -0.908700946 -0.155456636 2.647492359 0.102923502 0.082251054 0.914466677 -1.986174914 1.690117504 7.923547838 -0.866285471 -0.098488360 1.618902143 -6.485242722 4.330661198 0.458678232 -2.282276737 4.735313267 -11.109409911 0.488197672 3.367887028 9.393829608 76.239751865 15.984833285 30.532369914 0.044112605 18.073855611 0.081636152 -3.069093494 5.801605150 -2.642024217 0.007755714 -0.015777324 -0.021805744 -5.125177001 0.859081614 19.001846660 -5.740709372 1.452286369 9.634868540 -70.836457266 -13.411665173 30.564830213 0.786496930 -19.123190622 -0.157989198 7.707996330 -1.077265606 -0.231669678 0.001163520 -0.015385244 -0.001890404 -5.194356823 -0.879107442 -19.096399786 -9.309411260 -1.861952920 -10.291728417 -0.029642649 -0.164247906 66.161510261 4.208873632 1.657610970 0.994297507 -0.216935132 0.157834766 -4.540334844 -9.505011011 -2.830423557 -7.887923825 0.008724283 0.232532700 18.497724074 2.953960367 11.547928759 -7.422453517 -0.018874505 -0.321340339 -0.325725393
-19.816702604 94.970786572 68.111109734 4.399067228 -8.729956742 -4.915909751 -0.886950009 -0.330980075 3.222526395 0.064180609 -0.024215590 1.118709574 -1.000264176 0.542939359 7.979962478 -0.595244509 -0.156571411 1.641075650 -5.674378424 4.192537642 1.332282667 -2.216317115 4.937888487 -10.048921266 0.503185672 3.063011575 9.064851719 76.176771451 16.445452974 28.865883780 -0.155752350 19.653505241 0.128946536 -3.688595270 5.904406210 -3.056482553 -0.002049246 0.002046130 0.000711905 -5.141664492 0.883133881 19.013591369 -5.161899587 1.110642083 9.431150976 -70.902286829 -14.247383847 30.528947148 0.406708758 -21.139791019 -0.044466392 8.806073628 -1.625921655 -0.774492975 0.013162906 0.001155164 -0.011993195 -5.152294852 -0.871698817 -19.097628127 -7.801610312 -1.253808724 -15.916172357 -0.028027793 -0.271317619 62.917362889 2.812977559 -1.161943720 -3.513833763 -0.244792275 0.261470203 -4.751918910 -8.068795138 -2.833822823 -0.985292111 0.052654718 0.156739399 13.705851348 2.605027302 10.922739196 -8.513693723 -0.016457910 -0.291595979 -0.059018544
-21.221584082 95.224022865 72.837746143 3.085347212 -8.218084224 -5.365820877 -0.833604238 -0.060921745 3.565067161 0.050526861 -0.095809874 1.269910561 -0.143151046 -0.451687335 8.109648187 -0.327253132 -0.197816866 1.698584833 -4.796000702 3.911653885 1.730492796 -2.087473479 5.076971326 -9.369137444 0.921077148 2.720128657 8.962569005 75.494280344 17.151048580 27.518485170 0.019694314 21.289059520 0.087024107 -3.570691056 5.971568155 -3.166538316 0.006945665 0.010609677 -0.022309260 -5.149870039 0.869330003 19.123884393 -4.925072562 0.645729966 9.110268515 -70.559166083 -15.337029079 30.198817550 0.071165693 -22.719582734 0.024489989 9.134343790 -2.446639312 -1.366231051 -0.008938418 -0.006741660 -0.024651496 -5.112209427 -0.861453672 -19.134902072 -6.662590168 -0.485829375 -19.056285183 -0.034847911 -0.042265378 52.901582101 3.044702958 -2.361855562 -6.092197145 -0.047199663 0.072297554 -4.218985051 -6.414559865 -2.625877798 5.426301074 0.016804732 0.083197263 8.909643567 2.202169767 10.315538374 -9.493139986 0.010520953 -0.239216094 0.125106858
-22.665005922 95.000934601 77.693992853 2.124250379 -6.554118950 -5.389979688 -0.982269616 -0.318511778 3.333604775 0.372713754 -0.072560123 1.568884636 0.372389648 -1.354980179 8.125699057 -0.474862950 -0.350427133 1.735354188 -3.807560510 3.076589581 2.048930790 -1.562245832 4.912435484 -9.874852820 1.522564499 2.235870588 8.977330436 74.769306655 17.720111393 27.122221405 0.356914259 22.346746023 0.246539041 -3.888337704 6.004117483 -2.515237401 0.000114597 -0.029213725 0.024698729 -5.109920180 0.867588341 19.261901966 -4.305105796 -0.016337512 8.979866241 -70.587998397 -16.816499331 29.841650715 0.037124841 -22.907752748 0.183044864 9.018366582 -2.986042939 -1.369178554 0.022846155 -0.019119236 -0.001545043 -5.106869385 -0.855408307 -19.297140211 -6.723401118 -1.209340587 -19.761477501 -0.010521164 -0.196744610 37.457022192 3.838525945 -3.009241448 -5.734710215 -0.007781110 -0.022025107 -3.436817426 -4.772427893 -2.297970599 11.120586872 -0.017117564 0.118121871 4.638125958 1.529584067 8.373137812 -10.725697047 -0.015673706 0.067558945 0.499189248
